<svg version="1.1" id="Capa_1" xmlns="http://www.w3.org/2000/svg" xmlns:xlink="http://www.w3.org/1999/xlink" x="0px" y="0px"
	 viewBox="0 0 209.818 209.818" style="enable-background:new 0 0 209.818 209.818;" xml:space="preserve">
<path fill="#4680f8" d="M182.101,185.02c0,2.762-2.239,5-5,5H71.131c-1.747,3.071-5.044,5.151-8.823,5.151s-7.076-2.08-8.823-5.151H32.717
	c-2.761,0-5-2.238-5-5s2.239-5,5-5h20.768c1.747-3.071,5.044-5.15,8.823-5.15s7.075,2.08,8.823,5.15h105.97
	C179.862,180.02,182.101,182.258,182.101,185.02z M200.22,40.09c0,0.052-0.014,0.101-0.015,0.152c0.002,0.052,0.015,0.1,0.015,0.152
	v124.827v39.597c0,2.762-2.239,5-5,5H14.598c-2.761,0-5-2.238-5-5v-39.597V40.395c0-0.052,0.014-0.101,0.015-0.152
	c-0.002-0.052-0.015-0.1-0.015-0.152V18.216C9.598,8.172,17.77,0,27.814,0h154.19c10.044,0,18.216,8.172,18.216,18.216V40.09z
	 M190.22,170.222H19.598v29.597H190.22V170.222z M86.121,127.146c0.773,0.446,1.637,0.67,2.5,0.67s1.727-0.224,2.5-0.67
	l38.576-22.271c1.547-0.894,2.5-2.544,2.5-4.33s-0.953-3.437-2.5-4.33L91.121,73.941c-1.547-0.893-3.453-0.893-5,0
	c-1.547,0.894-2.5,2.544-2.5,4.33v44.544C83.621,124.602,84.574,126.252,86.121,127.146z M190.22,18.216
	c0-4.53-3.686-8.216-8.216-8.216H27.814c-4.53,0-8.216,3.686-8.216,8.216V35.09H190.22V18.216z M34.044,16.257
	c-3.861,0-7.003,3.142-7.003,7.004c0,3.861,3.142,7.003,7.003,7.003c3.862,0,7.003-3.142,7.003-7.003
	C41.047,19.398,37.906,16.257,34.044,16.257z M58.925,16.257c-3.861,0-7.003,3.142-7.003,7.004c0,3.861,3.142,7.003,7.003,7.003
	c3.862,0,7.003-3.142,7.003-7.003C65.929,19.398,62.787,16.257,58.925,16.257z M83.807,16.257c-3.862,0-7.003,3.142-7.003,7.004
	c0,3.861,3.142,7.003,7.003,7.003c3.861,0,7.003-3.142,7.003-7.003C90.81,19.398,87.668,16.257,83.807,16.257z"/>
</svg>
