<?xml version="1.0" encoding="utf-8"?>
<!-- Generator: Adobe Illustrator 17.1.0, SVG Export Plug-In . SVG Version: 6.00 Build 0)  -->
<!DOCTYPE svg PUBLIC "-//W3C//DTD SVG 1.1//EN" "http://www.w3.org/Graphics/SVG/1.1/DTD/svg11.dtd">
<svg version="1.1" id="Layer_1" xmlns="http://www.w3.org/2000/svg" xmlns:xlink="http://www.w3.org/1999/xlink" x="0px" y="0px"
	 viewBox="0 0 286.6 66.9" enable-background="new 0 0 286.6 66.9" xml:space="preserve">
<g>
	<g>
		<path fill="#FFFFFF" d="M72.5,28.5c2.2,0.6,3.2,1.7,3.2,3.4v7.4c0,2.9-1.5,4.4-4.5,4.4h-7.9V14.1h6.7c3.5,0,5.3,1.8,5.3,5.3v5.7
			c0,1.7-0.9,2.7-2.8,3.1V28.5z M67.3,26.6h1.8c1.5,0,2.3-0.7,2.3-2.1v-4.6c0-1.4-0.6-2.1-1.8-2.1h-2.3V26.6z M67.3,40.1h3
			c1,0,1.6-0.4,1.6-1.3v-6.5c0-1.4-0.8-2.1-2.3-2.1h-2.2V40.1z"/>
		<path fill="#FFFFFF" d="M85.6,43.7h-3.9V32.8l-4.8-18.7h3.9l3,12.8h0.1l2.7-12.8h3.9l-4.8,18.7V43.7z"/>
		<path fill="#FFFFFF" d="M98.9,17.7v25.9h-3.9V17.7h-3.8v-3.6h11.5v3.6H98.9z"/>
		<path fill="#FFFFFF" d="M108,40.1h6.7v3.6h-10.9l-0.3-1.4l6.2-24.5h-5.5v-3.6h8.9l0.8,1.7L108,40.1z"/>
		<path fill="#FFFFFF" d="M120.7,43.7h-3.9V19.2c0-3.4,1.6-5.1,4.7-5.1h3c3.2,0,4.7,1.7,4.7,5.1v24.5h-3.9V32.8h-4.5V43.7z
			 M125.2,29.3v-9.8c0-1.2-0.6-1.7-1.7-1.7h-1.1c-1.2,0-1.7,0.6-1.7,1.7v9.8H125.2z"/>
		<path fill="#FFFFFF" d="M132.7,14.1h7.2c3.2,0,4.8,1.7,4.8,5.1V28c0,3.3-1.6,5-4.7,5h-3.3v10.7h-3.9V14.1z M136.6,29.4h2.5
			c1,0,1.6-0.6,1.6-1.7v-8.2c0-1.2-0.6-1.7-1.8-1.7h-2.3V29.4z"/>
		<path fill="#FFFFFF" d="M159.5,36.7v1.9c0,3.3-1.6,5-4.7,5h-2.5c-3.2,0-4.7-1.7-4.7-5V19.2c0-3.3,1.6-5,4.7-5h2.5
			c3.2,0,4.7,1.7,4.7,5v3.3h-3.9v-3c0-1.2-0.6-1.7-1.8-1.7H153c-1,0-1.6,0.6-1.6,1.7v18.9c0,1.2,0.5,1.7,1.6,1.7h1
			c1,0,1.6-0.6,1.6-1.7v-1.6H159.5z"/>
		<path fill="#FFFFFF" d="M171.4,43.7V30.3h-4.8v13.4h-3.9V14.1h3.9v12.5h4.8V14.1h3.9v29.5H171.4z"/>
		<path fill="#FFFFFF" d="M182.8,43.7h-3.9V19.2c0-3.4,1.6-5.1,4.7-5.1h3c3.2,0,4.7,1.7,4.7,5.1v24.5h-3.9V32.8h-4.5V43.7z
			 M187.3,29.3v-9.8c0-1.2-0.6-1.7-1.7-1.7h-1.1c-1.2,0-1.7,0.6-1.7,1.7v9.8H187.3z"/>
		<path fill="#FFFFFF" d="M202.3,22.1v-2.6c0-1.2-0.6-1.8-1.7-1.8H200c-1.1,0-1.7,0.6-1.7,1.8v4.9c0,0.5,0.1,0.9,0.3,1.1
			c0.2,0.2,0.6,0.4,1.1,0.7l3.7,2c0.8,0.5,1.4,0.8,1.7,1.1c0.3,0.3,0.6,0.6,0.8,0.9c0.2,0.4,0.3,1.1,0.3,2.1v6.3c0,3.3-1.6,5-4.8,5
			h-2.4c-3.2,0-4.7-1.8-4.7-5.4v-1.5h3.9v1.6c0,1.2,0.6,1.7,1.8,1.7h0.7c1,0,1.6-0.6,1.6-1.7v-5c0-0.5-0.1-0.9-0.3-1.1
			c-0.2-0.2-0.6-0.4-1.1-0.7l-3.7-2.1c-0.8-0.4-1.4-0.8-1.8-1.1c-0.4-0.3-0.6-0.7-0.8-1.2c-0.2-0.5-0.2-1.1-0.2-1.9v-6
			c0-3.4,1.6-5.1,4.7-5.1h2.5c3.2,0,4.7,1.7,4.7,5.1v2.9H202.3z"/>
		<path fill="#FFFFFF" d="M215.8,17.7v25.9h-3.9V17.7h-3.8v-3.6h11.5v3.6H215.8z"/>
		<path fill="#FFFFFF" d="M221.7,36.7h3.9v1.6c0,1.2,0.5,1.7,1.6,1.7h0.5c1.2,0,1.8-0.6,1.8-1.7v-6.7c0-1.3-0.5-1.9-1.6-1.9h-6V14.1
			h11.1v3.7h-7.4v8.3h3.1c3.2,0,4.7,1.7,4.7,5.2v7.1c0,3.5-1.6,5.2-4.7,5.2h-2.2c-3.2,0-4.7-1.7-4.7-5V36.7z"/>
		<path fill="#FFFFFF" d="M247.8,40.1v3.5h-10.6v-9.1c0-0.5,0-0.9,0.1-1.2c0.1-0.3,0.2-0.6,0.4-0.9c0.2-0.3,0.6-0.7,1.1-1.2l4-3.8
			c0.3-0.3,0.5-0.6,0.7-0.8c0.2-0.2,0.3-0.4,0.4-0.6c0.1-0.2,0.1-0.3,0.1-0.5c0-0.2,0-0.4,0-0.7v-5.5c0-1.2-0.6-1.7-1.7-1.7h-0.2
			c-1.1,0-1.7,0.6-1.7,1.7v3h-3.9v-3.3c0-3.4,1.6-5.1,4.7-5.1h2.1c3.2,0,4.7,1.7,4.7,5.1v7.1c0,0.5-0.1,1-0.2,1.4
			c-0.2,0.4-0.5,0.9-1.2,1.5l-4.4,4.2c-0.5,0.5-0.9,0.9-0.9,1.1c-0.1,0.2-0.1,0.4-0.1,0.6c0,0.2,0,0.5,0,0.8v4.3H247.8z"/>
		<path fill="#FFFFFF" d="M255.6,38.6v5h-4.2v-5H255.6z"/>
		<path fill="#FFFFFF" d="M258.7,14.1h7.7c3,0,4.5,1.7,4.5,5.1v7.3c0,2.6-0.8,4.2-2.3,4.9l2.8,12.3h-3.7L265,31.7h-2.4v11.9h-3.9
			V14.1z M262.6,28.4h2.6c1.2,0,1.8-0.7,1.8-2.1v-6.4c0-1.4-0.6-2.1-1.8-2.1h-2.6V28.4z"/>
		<path fill="#FFFFFF" d="M286.6,14.1v23.9c0,3.7-1.6,5.6-4.8,5.6h-3.3c-3.2,0-4.7-1.9-4.7-5.6V14.1h3.9v24c0,1.3,0.6,1.9,1.7,1.9
			h1.6c1.1,0,1.6-0.6,1.6-1.9v-24H286.6z"/>
	</g>
	<g>
		<path fill="#FFFFFF" d="M66.3,51.9c0.4,0.2,0.6,0.4,0.8,0.7c0.2,0.3,0.3,0.6,0.3,1c0,0.4-0.1,0.8-0.4,1.1
			c-0.3,0.3-0.6,0.5-1.1,0.6c0.5,0.1,0.9,0.2,1.3,0.5c0.3,0.3,0.5,0.7,0.5,1.2c0,0.4-0.1,0.8-0.3,1.2c-0.2,0.3-0.6,0.6-1,0.8
			c-0.4,0.2-0.9,0.3-1.4,0.3c-1,0-1.8-0.3-2.4-1l0.8-0.7c0.2,0.2,0.5,0.4,0.7,0.5c0.2,0.1,0.5,0.2,0.8,0.2c0.4,0,0.8-0.1,1-0.3
			c0.2-0.2,0.4-0.5,0.4-0.9c0-0.4-0.1-0.7-0.4-0.9c-0.2-0.2-0.6-0.3-1.1-0.3H64l0.2-1h0.6c0.4,0,0.7-0.1,0.9-0.3
			c0.2-0.2,0.3-0.4,0.3-0.8c0-0.3-0.1-0.5-0.3-0.7c-0.2-0.2-0.4-0.3-0.8-0.3c-0.5,0-1,0.2-1.5,0.6l-0.7-0.7c0.7-0.6,1.5-0.9,2.4-0.9
			C65.5,51.7,66,51.8,66.3,51.9z"/>
		<path fill="#FFFFFF" d="M71.7,57.3L71.2,59h-1.4l2.2-7.2h1.7l2.2,7.2h-1.5L74,57.3H71.7z M72.8,52.9l-0.9,3.4h1.8L72.8,52.9z"/>
		<path fill="#FFFFFF" d="M82.7,59v-6.1h-2.5V59h-1.4v-7.2h5.3V59H82.7z"/>
		<path fill="#FFFFFF" d="M92.6,59h-1.4v-2.8c-0.3,0.2-0.5,0.4-0.8,0.4c-0.3,0.1-0.6,0.1-0.9,0.1c-0.7,0-1.2-0.2-1.6-0.6
			c-0.4-0.4-0.6-1-0.6-1.7v-2.7h1.4v2.6c0,0.4,0.1,0.8,0.3,1c0.2,0.2,0.5,0.3,0.9,0.3c0.5,0,1-0.2,1.3-0.5v-3.4h1.4V59z"/>
		<path fill="#FFFFFF" d="M97.3,57.3L96.9,59h-1.4l2.2-7.2h1.7l2.2,7.2h-1.5l-0.4-1.7H97.3z M98.5,52.9l-0.9,3.4h1.8L98.5,52.9z"/>
		<path fill="#FFFFFF" d="M108.1,51.9c0.3,0.1,0.6,0.3,1,0.6l-0.7,0.8c-0.4-0.3-0.9-0.5-1.3-0.5c-0.5,0-1,0.2-1.3,0.6
			c-0.3,0.4-0.5,1.1-0.5,2c0,0.9,0.2,1.6,0.5,2c0.3,0.4,0.8,0.6,1.3,0.6c0.3,0,0.5-0.1,0.7-0.2c0.2-0.1,0.5-0.3,0.7-0.4l0.6,0.8
			c-0.2,0.2-0.5,0.5-0.9,0.6c-0.4,0.2-0.8,0.3-1.2,0.3c-0.6,0-1.2-0.1-1.7-0.4c-0.5-0.3-0.8-0.7-1.1-1.3c-0.3-0.6-0.4-1.2-0.4-2
			c0-0.8,0.1-1.5,0.4-2c0.3-0.6,0.6-1,1.1-1.3c0.5-0.3,1-0.4,1.6-0.4C107.3,51.7,107.7,51.7,108.1,51.9z"/>
		<path fill="#FFFFFF" d="M114.7,52.9V59h-1.4v-6.1h-1.9v-1.1h5.3l-0.1,1.1H114.7z"/>
		<path fill="#FFFFFF" d="M123.7,59V56c0-0.9,0.1-1.8,0.2-2.7l-2.4,5.8h-1.7v-7.2h1.4v3.1c0,0.6,0,1.1-0.1,1.4
			c0,0.4-0.1,0.8-0.1,1.2l2.5-5.8h1.7V59H123.7z"/>
		<path fill="#FFFFFF" d="M138.8,60.7h-1l-0.2-1.6h-4l-0.2,1.6h-1v-2.7h0.5c0.2-0.2,0.3-0.4,0.4-0.7c0.1-0.3,0.2-0.6,0.3-1.1
			c0.1-0.5,0.2-1.2,0.3-2.2l0.3-2.2h3.9v6.1h0.6V60.7z M135.4,52.9l-0.1,1.1c-0.1,0.9-0.2,1.6-0.3,2.1c-0.1,0.5-0.2,0.9-0.3,1.2
			c-0.1,0.3-0.3,0.5-0.5,0.7h2.7v-5.1H135.4z"/>
		<path fill="#FFFFFF" d="M147.3,59h-1.4v-6.1h-1.8l-0.3,2.7c-0.1,0.8-0.2,1.5-0.4,1.9c-0.1,0.5-0.3,0.8-0.6,1
			c-0.3,0.2-0.6,0.4-1.1,0.5l-0.3-1c0.3-0.1,0.4-0.2,0.6-0.4c0.1-0.2,0.2-0.4,0.3-0.7c0.1-0.3,0.1-0.8,0.2-1.4l0.4-3.8h4.4V59z"/>
		<path fill="#FFFFFF" d="M155.6,59h-1.4v-2.7h-1.1l-1.3,2.7h-1.5l1.5-2.9c-0.4-0.2-0.8-0.4-1-0.8c-0.2-0.3-0.3-0.7-0.3-1.2
			c0-0.7,0.2-1.3,0.7-1.7c0.5-0.4,1.2-0.6,2.1-0.6h2.2V59z M154.2,52.8h-0.8c-0.5,0-0.9,0.1-1.1,0.3c-0.2,0.2-0.4,0.5-0.4,1
			c0,0.4,0.1,0.7,0.3,0.9c0.2,0.2,0.5,0.3,0.9,0.3h1V52.8z"/>
		<path fill="#FFFFFF" d="M168.3,55c0.5,0.4,0.7,0.9,0.7,1.7c0,0.8-0.3,1.4-0.8,1.8c-0.5,0.4-1.2,0.6-2,0.6H164v-7.2h4.2l-0.1,1.1
			h-2.7v1.5h0.9C167.2,54.4,167.8,54.6,168.3,55z M167.3,57.7c0.2-0.2,0.4-0.5,0.4-1c0-0.4-0.1-0.7-0.4-0.9
			c-0.2-0.2-0.6-0.3-1.1-0.3h-0.8V58h0.8C166.7,58,167,57.9,167.3,57.7z"/>
		<path fill="#FFFFFF" d="M176.4,54.9c0.5,0.4,0.7,0.9,0.7,1.7c0,0.8-0.3,1.4-0.8,1.8c-0.5,0.4-1.2,0.6-2,0.6h-2.1v-7.2h1.4v2.5h0.7
			C175.2,54.4,175.9,54.6,176.4,54.9z M175.3,57.7c0.2-0.2,0.4-0.5,0.4-1c0-0.5-0.1-0.8-0.4-1c-0.2-0.2-0.6-0.3-1.1-0.3h-0.7V58h0.7
			C174.8,58,175.1,57.9,175.3,57.7z M179.2,59h-1.4v-7.2h1.4V59z"/>
		<path fill="#FFFFFF" d="M185.6,52.9V59h-1.4v-6.1h-1.9v-1.1h5.3l-0.1,1.1H185.6z"/>
		<path fill="#FFFFFF" d="M194.7,52.1c0.5,0.3,0.8,0.7,1.1,1.3s0.4,1.2,0.4,2c0,0.8-0.1,1.5-0.4,2c-0.3,0.6-0.6,1-1.1,1.3
			c-0.5,0.3-1,0.4-1.7,0.4c-0.6,0-1.2-0.1-1.7-0.4c-0.5-0.3-0.8-0.7-1.1-1.3c-0.3-0.6-0.4-1.2-0.4-2c0-0.8,0.1-1.4,0.4-2
			c0.3-0.6,0.6-1,1.1-1.3c0.5-0.3,1-0.4,1.7-0.4C193.6,51.7,194.2,51.8,194.7,52.1z M191.7,53.4c-0.3,0.4-0.4,1.1-0.4,2.1
			c0,1.8,0.6,2.7,1.7,2.7c0.6,0,1-0.2,1.3-0.6c0.3-0.4,0.4-1.1,0.4-2.1c0-0.9-0.1-1.6-0.4-2c-0.3-0.4-0.7-0.6-1.3-0.6
			S192,52.9,191.7,53.4z"/>
		<path fill="#FFFFFF" d="M204.2,55.7c0.3,0.3,0.5,0.7,0.5,1.2c0,0.7-0.3,1.3-0.8,1.6c-0.5,0.3-1.3,0.5-2.2,0.5h-2.2v-7.2h1.9
			c2,0,3,0.6,3,1.8c0,0.4-0.1,0.8-0.4,1c-0.3,0.3-0.6,0.4-0.9,0.5C203.5,55.3,203.9,55.5,204.2,55.7z M200.9,54.8h0.8
			c0.4,0,0.7-0.1,0.9-0.3c0.2-0.2,0.3-0.4,0.3-0.8c0-0.3-0.1-0.6-0.3-0.7c-0.2-0.1-0.6-0.2-1.1-0.2h-0.6V54.8z M202.8,57.8
			c0.3-0.2,0.4-0.4,0.4-0.9c0-0.4-0.1-0.7-0.4-0.9c-0.3-0.2-0.6-0.3-1-0.3h-0.9V58h0.8C202.2,58,202.6,57.9,202.8,57.8z"/>
		<path fill="#FFFFFF" d="M212.4,52.1c0.5,0.3,0.8,0.7,1.1,1.3c0.3,0.6,0.4,1.2,0.4,2c0,0.8-0.1,1.5-0.4,2c-0.3,0.6-0.6,1-1.1,1.3
			c-0.5,0.3-1,0.4-1.7,0.4c-0.6,0-1.2-0.1-1.7-0.4c-0.5-0.3-0.8-0.7-1.1-1.3c-0.3-0.6-0.4-1.2-0.4-2c0-0.8,0.1-1.4,0.4-2
			c0.3-0.6,0.6-1,1.1-1.3c0.5-0.3,1-0.4,1.7-0.4C211.4,51.7,211.9,51.8,212.4,52.1z M209.4,53.4c-0.3,0.4-0.4,1.1-0.4,2.1
			c0,1.8,0.6,2.7,1.7,2.7c0.6,0,1-0.2,1.3-0.6c0.3-0.4,0.4-1.1,0.4-2.1c0-0.9-0.1-1.6-0.4-2c-0.3-0.4-0.7-0.6-1.3-0.6
			C210.2,52.7,209.7,52.9,209.4,53.4z"/>
		<path fill="#FFFFFF" d="M221.2,59V56c0-0.9,0.1-1.8,0.2-2.7l-2.4,5.8h-1.7v-7.2h1.4v3.1c0,0.6,0,1.1-0.1,1.4
			c0,0.4-0.1,0.8-0.1,1.2l2.5-5.8h1.7V59H221.2z M218.7,50.7c-0.3-0.3-0.5-0.6-0.5-1l0.8-0.1c0.1,0.2,0.2,0.4,0.3,0.5
			c0.1,0.1,0.3,0.1,0.6,0.1c0.2,0,0.4,0,0.6-0.1c0.2-0.1,0.3-0.3,0.3-0.5l0.8,0.1c0,0.4-0.2,0.8-0.5,1c-0.3,0.3-0.7,0.4-1.2,0.4
			C219.4,51.1,219,50.9,218.7,50.7z"/>
		<path fill="#FFFFFF" d="M233.6,52.9V59h-1.4v-6.1h-1.9v-1.1h5.3l-0.1,1.1H233.6z"/>
		<path fill="#FFFFFF" d="M239.9,52.8v2h2.3v1h-2.3V58h2.8v1h-4.2v-7.2h4.2l-0.1,1H239.9z"/>
		<path fill="#FFFFFF" d="M249.6,59l-1.4-2.9l-1.4,2.9h-1.5l2.1-3.8l-1.9-3.4h1.5l1.2,2.5l1.3-2.5h1.5l-1.9,3.3l2.1,3.9H249.6z"/>
		<path fill="#FFFFFF" d="M255.4,55.8V59h-1.4v-7.2h1.4v2.9h2.6v-2.9h1.4V59H258v-3.2H255.4z"/>
		<path fill="#FFFFFF" d="M267.1,59V56c0-0.9,0.1-1.8,0.2-2.7l-2.4,5.8h-1.7v-7.2h1.4v3.1c0,0.6,0,1.1-0.1,1.4
			c0,0.4-0.1,0.8-0.1,1.2l2.5-5.8h1.7V59H267.1z"/>
		<path fill="#FFFFFF" d="M277.7,59h-1.5l-1.7-3.2h-0.9V59h-1.4v-7.2h1.4v2.9h0.9l1.6-2.9h1.4l-1.9,3.3L277.7,59z"/>
		<path fill="#FFFFFF" d="M284.5,59V56c0-0.9,0.1-1.8,0.2-2.7l-2.4,5.8h-1.7v-7.2h1.4v3.1c0,0.6,0,1.1-0.1,1.4
			c0,0.4-0.1,0.8-0.1,1.2l2.5-5.8h1.7V59H284.5z"/>
	</g>
	<path fill="#FFFFFF" d="M54.8,13.8v44.5c0,0.6-0.5,1.1-1.1,1.1h-43c-0.6,0-1.1-0.5-1.1-1.1V13.8H54.8 M56.8,11.8H7.7v46.5
		c0,1.7,1.4,3.1,3.1,3.1h43c1.7,0,3.1-1.4,3.1-3.1V11.8L56.8,11.8z"/>
	<path fill="#FFFFFF" d="M32.2,53.8c0,0-0.3,0-0.9,0c-0.6,0.1-1.5,0-2.7-0.1c-0.6-0.1-1.2-0.2-1.9-0.4c-0.7-0.2-1.4-0.4-2.2-0.7
		c-1.5-0.6-3.2-1.5-4.7-2.8c-1.6-1.3-3.1-3-4.2-5c-1.2-2.1-2-4.5-2.2-7.1c0-0.7-0.1-1.3-0.1-2c0-0.6,0-1.2,0.1-1.9
		c0.2-1.4,0.4-2.7,0.9-4c0.9-2.6,2.4-5,4.4-7c2-2,4.4-3.5,7-4.4c2.6-0.9,5.4-1.2,7.9-0.9c2.6,0.2,5.1,1.1,7.1,2.2
		c2.1,1.1,3.7,2.6,5,4.2c1.3,1.6,2.2,3.2,2.8,4.7c0.3,0.7,0.5,1.5,0.7,2.2c0.2,0.7,0.2,1.3,0.4,1.9c0.1,1.1,0.1,2,0.1,2.7
		c0,0.6,0,0.9,0,0.9s0-0.3-0.1-0.9c-0.1-0.3-0.1-0.7-0.2-1.1c-0.1-0.4-0.2-0.9-0.3-1.5c-0.2-0.5-0.4-1.1-0.6-1.7
		c-0.3-0.6-0.5-1.3-0.9-1.9c-0.7-1.4-1.7-2.7-3-4c-1.3-1.3-2.9-2.5-4.8-3.4c-1.9-0.9-4-1.4-6.2-1.6c-2.3-0.1-4.6,0.2-6.8,1
		c-2.2,0.8-4.2,2.1-5.9,3.8c-1.7,1.7-3,3.7-3.8,5.9c-0.2,0.5-0.4,1.1-0.5,1.7c-0.2,0.6-0.2,1.1-0.3,1.6l-0.1,0.4l0,0.5L16.1,36
		c-0.1,0.5,0,1.1,0,1.7c0.1,2.2,0.7,4.4,1.6,6.2c0.9,1.9,2.1,3.5,3.4,4.8c1.3,1.3,2.7,2.3,4,3c0.7,0.4,1.3,0.6,1.9,0.9
		c0.6,0.2,1.2,0.4,1.7,0.6c0.5,0.1,1,0.2,1.4,0.3c0.4,0.1,0.8,0.1,1.1,0.2C31.9,53.8,32.2,53.8,32.2,53.8z"/>
	<g>
		<path fill="#FFFFFF" d="M51.9,4L51.9,4c0.7,0,1.3,0.6,1.3,1.3l0,0c0,0.7-0.6,1.3-1.3,1.3l0,0c-0.7,0-1.3-0.6-1.3-1.3l0,0
			C50.6,4.5,51.2,4,51.9,4z"/>
		<path fill="#FFFFFF" d="M48,4L48,4c0.7,0,1.3,0.6,1.3,1.3l0,0c0,0.7-0.6,1.3-1.3,1.3l0,0c-0.7,0-1.3-0.6-1.3-1.3l0,0
			C46.7,4.5,47.3,4,48,4z"/>
		<path fill="#FFFFFF" d="M44.1,4L44.1,4c0.7,0,1.3,0.6,1.3,1.3l0,0c0,0.7-0.6,1.3-1.3,1.3l0,0c-0.7,0-1.3-0.6-1.3-1.3l0,0
			C42.9,4.5,43.4,4,44.1,4z"/>
	</g>
	<g>
		<circle fill="#FFFFFF" cx="29.9" cy="6.1" r="2.6"/>
	</g>
	<g>
		<circle fill="#FFFFFF" cx="36.7" cy="6.1" r="2.6"/>
	</g>
	<path fill="#FFFFFF" d="M32.2,23.5c0,0,0.2,0,0.7,0c0.4,0,1.1,0,2,0c0.4,0.1,0.9,0.1,1.4,0.2c0.5,0.1,1.1,0.2,1.6,0.5
		c1.1,0.4,2.4,1.1,3.5,2c1.2,0.9,2.3,2.2,3.2,3.7c0.9,1.5,1.5,3.3,1.7,5.3c0,0.5,0.1,0.9,0.1,1.5c0,0.5,0,0.9-0.1,1.4
		c-0.1,1.1-0.3,2.1-0.7,3c-0.7,2-1.8,3.8-3.3,5.3c-1.5,1.5-3.3,2.6-5.3,3.3c-1.9,0.7-4.1,0.9-5.9,0.7c-2-0.2-3.8-0.8-5.3-1.7
		c-1.5-0.9-2.8-2-3.7-3.2c-1-1.2-1.6-2.4-2-3.5c-0.2-0.6-0.3-1.1-0.5-1.6c-0.1-0.5-0.2-1-0.2-1.4c-0.1-0.9-0.1-1.5,0-2
		c0-0.4,0-0.7,0-0.7s0,0.2,0.1,0.7c0,0.4,0.2,1.1,0.4,1.9c0.1,0.4,0.3,0.8,0.5,1.3c0.2,0.4,0.4,0.9,0.7,1.4c0.5,1,1.3,1.9,2.3,2.9
		c1,0.9,2.1,1.7,3.5,2.4c1.4,0.6,2.9,1,4.4,1.1c1.7,0.1,3.3-0.2,4.8-0.8c1.5-0.6,3-1.5,4.2-2.7c1.2-1.2,2.1-2.6,2.7-4.2
		c0.2-0.4,0.3-0.8,0.4-1.2c0.1-0.4,0.2-0.8,0.3-1.1c0.1-0.3,0.1-0.9,0.1-1.3c0-0.3,0-0.8,0-1.2c-0.1-1.6-0.4-3.1-1.1-4.5
		c-0.6-1.3-1.5-2.5-2.4-3.5c-0.9-0.9-1.9-1.7-2.9-2.3c-0.5-0.3-1-0.5-1.4-0.7c-0.4-0.2-0.9-0.3-1.3-0.5c-0.8-0.2-1.4-0.4-1.9-0.4
		C32.4,23.5,32.2,23.5,32.2,23.5z"/>
	<path fill="#FFFFFF" d="M53.7,0h-43C9,0,7.7,1.4,7.7,3.1v9h2v-2v-2v-5c0-0.6,0.5-1.1,1.1-1.1h43c0.6,0,1.1,0.5,1.1,1.1v5v2v2h2v-9
		C56.8,1.4,55.4,0,53.7,0z"/>
	<path fill="#FFFFFF" d="M22.6,4c0.1,0.9,0,1.8,0,2.6c-0.1,0.9-0.1,1.7-0.2,2.6l-0.1,0.6l-0.7,0.1c-0.8,0.1-1.6,0.1-2.3,0.2
		c-0.8,0-1.6,0-2.3,0.1c-1.6,0-3.1-0.1-4.7-0.2l-0.8-0.1l-0.1-0.6c-0.2-1.7-0.3-3.5-0.2-5.2c0.8,1.6,1.3,3.2,1.8,4.9l-0.8-0.7
		C13.9,8.1,15.4,8,17,8c0.8,0,1.6,0,2.3,0.1c0.8,0.1,1.6,0.1,2.3,0.2l-0.8,0.6c0.2-0.8,0.5-1.7,0.8-2.5C22,5.6,22.3,4.8,22.6,4z"/>
	<path fill="#FFFFFF" d="M7.8,56.7c0,0-0.4,0-1,0.1c-0.6,0.1-1.5,0.3-2.5,0.9c-1,0.5-2.1,1.5-2.4,2.9c-0.1,0.7,0,1.4,0.5,2
		c0.5,0.6,1.3,1.2,2.2,1.6c1.9,0.8,4.3,1.1,6.8,1.2c2.5,0.1,5.2-0.1,7.9-0.3c5.5-0.5,11.5-1.2,17.4-1.4c6-0.3,11.9,0,17.5,0.5
		c5.6,0.4,10.7,1,15.2,1.4c4.4,0.4,8.1,0.7,10.7,0.8c1.3,0.1,2.3,0.1,3,0.1c0.7,0,1.1,0,1.1,0s-0.4,0-1.1,0c-0.7,0-1.7,0-3,0
		c-2.6-0.1-6.3-0.2-10.8-0.6c-4.5-0.3-9.6-0.8-15.2-1.1c-5.6-0.3-11.5-0.5-17.4-0.1c-5.9,0.4-11.8,1.2-17.4,1.8
		c-2.8,0.3-5.5,0.5-8.1,0.5c-0.7,0-1.3,0-2-0.1c-0.3,0-0.6-0.1-0.9-0.1l-0.5,0l-0.5-0.1c-1.2-0.2-2.4-0.5-3.6-0.9
		c-1.1-0.4-2.2-1.1-3-2c-0.4-0.5-0.7-1-0.8-1.6C0,61.5,0,60.9,0.1,60.3c0.2-1.1,0.8-2,1.4-2.7C2,57,2.7,56.5,3.3,56.1
		c1.3-0.7,2.3-1,3.1-1.2c0.8-0.2,1.1-0.2,1.1-0.2L7.8,56.7z"/>
</g>
</svg>
